<svg width="99" height="66" viewBox="0 0 99 66" fill="none" xmlns="http://www.w3.org/2000/svg">
<g clip-path="url(#clip0_451_154)">
<path d="M0 0.0463562H98.807V66.0464H0V0.0463562Z" fill="white"/>
<path d="M0 0.0463562H98.807V17.6464H0V0.0463562ZM0 48.4464H98.807V66.0464H0V48.4464Z" fill="#D03433"/>
<path d="M0 17.6078H98.807V48.485H0V17.6078Z" fill="#FBCA46"/>
<path d="M34.2531 30.8464H38.6445V33.0464H34.2531V30.8464V30.8464Z" fill="white"/>
<path d="M31.6183 37.4464C31.6183 38.7664 32.9357 39.6464 34.2531 39.6464C35.5705 39.6464 36.888 38.7664 36.888 37.4464L37.3271 30.8464H31.1791L31.6183 37.4464V37.4464ZM28.9834 30.8464C28.9834 29.5264 29.8617 28.6464 30.74 28.6464H37.3271C38.6445 28.6464 39.5228 29.5264 39.5228 30.4064V30.8464L39.0837 37.4464C38.6445 40.0864 36.888 41.8464 34.2531 41.8464C31.6183 41.8464 29.8617 40.0864 29.4225 37.4464L28.9834 30.8464Z" fill="#A41517"/>
<path d="M29.8617 33.0464H38.6445V35.2464H36.4488L34.2531 39.6464L32.0574 35.2464H29.8617V33.0464V33.0464ZM23.2745 26.4464H27.666V41.8464H23.2745V26.4464ZM40.8402 26.4464H45.2317V41.8464H40.8402V26.4464ZM29.8617 24.2464C29.8617 22.9264 30.74 22.0464 32.0574 22.0464H36.4488C37.7662 22.0464 38.6445 22.9264 38.6445 24.2464V25.1264C38.6445 26.0064 38.2054 26.4464 37.3271 26.4464H30.74C30.3008 26.4464 29.8617 26.0064 29.8617 25.5664V24.2464V24.2464Z" fill="#A41517"/>
</g>
<defs>
<clipPath id="clip0_451_154">
<rect width="99" height="66" rx="10" fill="white"/>
</clipPath>
</defs>
</svg>
