<svg width="99" height="66" viewBox="0 0 99 66" fill="none" xmlns="http://www.w3.org/2000/svg">
<g clip-path="url(#clip0_451_162)">
<path d="M0 0H99V66H0V0Z" fill="white"/>
<path d="M0 0H99V5.07544H0V0ZM0 10.1509H99V15.2263H0V10.1509ZM0 20.3018H99V25.3772H0V20.3018ZM0 30.4526H99V35.5281H0V30.4526ZM0 40.6228H99V45.6982H0V40.6228ZM0 50.7737H99V55.8491H0V50.7737ZM0 60.9246H99V66H0V60.9246Z" fill="#D80027"/>
<path d="M0 0H49.5V35.5281H0V0Z" fill="#2E52B2"/>
<path d="M9.22457 26.8053L8.45264 24.3351L7.60352 26.8053H5.05615L7.12106 28.2912L6.34914 30.7614L8.45264 29.2368L10.4983 30.7614L9.70703 28.2912L11.8105 26.8053H9.22457ZM20.0895 26.8053L19.2983 24.3351L18.4877 26.8053H15.9404L18.0053 28.2912L17.2333 30.7614L19.2983 29.2368L21.3825 30.7614L20.6105 28.2912L22.6755 26.8053H20.0895ZM30.993 26.8053L30.1632 24.3351L29.3912 26.8053H26.786L28.9088 28.2912L28.0983 30.7614L30.1632 29.2368L32.286 30.7614L31.4755 28.2912L33.5404 26.8053H30.993ZM41.8386 26.8053L41.0667 24.3351L40.2562 26.8053H37.6895L39.7737 28.2912L39.0018 30.7614L41.0667 29.2368L43.1509 30.7614L42.3211 28.2912L44.4439 26.8053H41.8386ZM19.2983 14.5316L18.4877 17.0017H15.9404L18.0053 18.5263L17.2333 20.9579L19.2983 19.4526L21.3825 20.9579L20.6105 18.5263L22.6755 17.0017H20.0895L19.2983 14.5316ZM8.45264 14.5316L7.60352 17.0017H5.05615L7.12106 18.5263L6.34914 20.9579L8.45264 19.4526L10.4983 20.9579L9.70703 18.5263L11.8105 17.0017H9.22457L8.45264 14.5316ZM30.1632 14.5316L29.3912 17.0017H26.786L28.9088 18.5263L28.0983 20.9579L30.1632 19.4526L32.286 20.9579L31.4755 18.5263L33.5404 17.0017H30.993L30.1632 14.5316ZM41.0667 14.5316L40.2562 17.0017H37.6895L39.7737 18.5263L39.0018 20.9579L41.0667 19.4526L43.1509 20.9579L42.3211 18.5263L44.4439 17.0017H41.8386L41.0667 14.5316ZM8.45264 4.76666L7.60352 7.19824H5.05615L7.12106 8.7228L6.34914 11.1737L8.45264 9.64912L10.4983 11.1737L9.70703 8.7228L11.8105 7.19824H9.22457L8.45264 4.76666ZM19.2983 4.76666L18.4877 7.19824H15.9404L18.0053 8.7228L17.2333 11.1737L19.2983 9.64912L21.3825 11.1737L20.6105 8.7228L22.6755 7.19824H20.0895L19.2983 4.76666ZM30.1632 4.76666L29.3912 7.19824H26.786L28.9088 8.7228L28.0983 11.1737L30.1632 9.64912L32.286 11.1737L31.4755 8.7228L33.5404 7.19824H30.993L30.1632 4.76666ZM41.0667 4.76666L40.2562 7.19824H37.6895L39.7737 8.7228L39.0018 11.1737L41.0667 9.64912L43.1509 11.1737L42.3211 8.7228L44.4439 7.19824H41.8386L41.0667 4.76666Z" fill="white"/>
</g>
<defs>
<clipPath id="clip0_451_162">
<rect width="99" height="66" rx="10" fill="white"/>
</clipPath>
</defs>
</svg>
